# xmcd CD database file
#
# Track frame offsets:
#	150
#	29577
#	60905
#	82160
#	112777
#	117945
#	130157
#	151300
#	169397
#	195407
#	222242
#	249972
#	265775
#	291962
#	321767
#
# Disc length: 4645 seconds
#
# Revision: 1
# Processed by: cddbd v1.5.2PL0 Copyright (c) Steve Scherf et al.
# Submitted via: CDex 1.70beta2
#
DISCID=cf12230f
DTITLE=Black Sabbath - The Sabbath Stones
DYEAR=1996
DGENRE=Rock
TTITLE0=Headless Cross
TTITLE1=When Death Calls
TTITLE2=Devil And Daughter
TTITLE3=The Sabbath Stones
TTITLE4=The Battle Of Tyr
TTITLE5=Odin's Court
TTITLE6=Valhalla
TTITLE7=TV Crimes
TTITLE8=Virtual Death
TTITLE9=Evil Eye
TTITLE10=Kiss Of Death
TTITLE11=Guilty As Hell
TTITLE12=Disturbing The Priest
TTITLE13=Heart Like A Wheel
TTITLE14=The Shining
EXTD=YEAR: 1996
EXTT0=
EXTT1=
EXTT2=
EXTT3=
EXTT4=
EXTT5=
EXTT6=
EXTT7=
EXTT8=
EXTT9=
EXTT10=
EXTT11=
EXTT12=
EXTT13=
EXTT14=
PLAYORDER=
